# xmcd CD database file
#
# Track frame offsets:
#	150
#	6470
#	12037
#	19612
#	29830
#	40365
#	45732
#	52217
#	60132
#	67385
#	71875
#	76602
#	82750
#	88312
#	96852
#	106582
#	113225
#	118255
#	128000
#	138507
#	146095
#	156130
#	166027
#	172695
#	177785
#	188650
#	195437
#	205812
#	218785
#	232132
#	242085
#	254592
#	268282
#	283167
#	296042
#	315465
#	326615
#	343142
#
# Disc length: 4672 seconds
#
# Revision: 0
# Processed by: cddbd v1.5.1PL2 Copyright (c) Steve Scherf et al.
# Submitted via: CDex 1.51
#
DISCID=31123e26
DTITLE=Leadbelly - Leadbelly Complete Recorded Works 1939-1947 - Volume 6
DYEAR=1947
DGENRE=Blues
TTITLE0=Yellow Gal
TTITLE1=You Can't Lose Me Cholly
TTITLE2=Laura
TTITLE3=Good Morning Blues
TTITLE4=Leaving Blues
TTITLE5=Big Fat Woman
TTITLE6=Gray Goose
TTITLE7=Pick A Bale Of Cotton
TTITLE8=Take This Hammer
TTITLE9=Bring Me A Little Water Silvy (Sylvie)
TTITLE10=Moaning
TTITLE11=Meeting At The Building
TTITLE12=We Shall Walk Through The Valley
TTITLE13=Irene, Good Night
TTITLE14=Cotton Song
TTITLE15=Ha Ha This Way
TTITLE16=Sukey Jump (Win'jammer)
TTITLE17=Black Girl
TTITLE18=Rock Island Line
TTITLE19=Blind Lemon (Song)
TTITLE20=Borrow Love And Go
TTITLE21=On A Monday (I'm Almost Done)
TTITLE22=Shorty George
TTITLE23=Duncan (And Brady)
TTITLE24=Old Riley
TTITLE25=Leavin' Blues (Leavin' In The Morning)
TTITLE26=Pigmeat
TTITLE27=If It Wasn't For Dicky
TTITLE28=Black Betty - Old Man - On A Monday
TTITLE29=Turn Yo' Radio On
TTITLE30=No Good Rider
TTITLE31=Howard Hughes
TTITLE32=New York City
TTITLE33=The Gallis Pole
TTITLE34=I'm Leavin' On The Morning Train
TTITLE35=Jean Harlow
TTITLE36=Good Mornin' Blues
TTITLE37=Eagle Rock Rag (Live)
EXTD=YEAR: 1947
EXTT0=
EXTT1=
EXTT2=
EXTT3=
EXTT4=
EXTT5=
EXTT6=
EXTT7=
EXTT8=
EXTT9=
EXTT10=
EXTT11=
EXTT12=
EXTT13=
EXTT14=
EXTT15=
EXTT16=
EXTT17=
EXTT18=
EXTT19=
EXTT20=
EXTT21=
EXTT22=
EXTT23=
EXTT24=
EXTT25=
EXTT26=
EXTT27=
EXTT28=
EXTT29=
EXTT30=
EXTT31=
EXTT32=
EXTT33=
EXTT34=
EXTT35=
EXTT36=
EXTT37=
PLAYORDER=
